<?xml version="1.0" encoding="UTF-8"?>
<svg width="1e3" height="1e3" version="1.1" viewBox="0 0 264.58 264.58" xmlns="http://www.w3.org/2000/svg"><rect x="6.6146" y="6.6146" width="119.06" height="119.06" fill="#00aad4" stroke-width=".21748"/><rect transform="rotate(45)" x="144.99" y="51.449" width="84.19" height="84.19" fill="#f06" stroke-width=".15378"/><circle cx="198.44" cy="66.146" r="59.531" fill="#f06" stroke-width=".28381"/><path d="m154.03 227.29a59.531 59.531 0 0 0 81.321 21.79 59.531 59.531 0 0 0 15.461-12.908 59.531 59.531 0 0 1-62.412-28.725 59.531 59.531 0 0 1 6.2699-68.402 59.531 59.531 0 0 0-18.85 6.9241 59.531 59.531 0 0 0-21.79 81.321z" fill="#00aad4" stroke-width=".28381"/></svg>
